<svg version="1.1" xmlns="http://www.w3.org/2000/svg" xmlns:xlink="http://www.w3.org/1999/xlink" x="0px" y="0px"
	 width="445px" height="450px" viewBox="0 0 445 450" style="fill:#7E3DFF;">
<path d="M429.962,241.077c-0.583,2.313-1.059,4.663-1.766,6.938c-5.202,16.708-20.49,28.058-38.006,28.127
	c-17.397,0.067-34.797,0.016-52.196,0.016c-1.026,0-2.052,0-3.469,0c0,1.175,0,2.174,0,3.17c0,21.532,0.007,43.065-0.008,64.599
	c-0.004,5.041-1.861,7.736-6.087,8.984c-3.378,0.995-6.053-0.387-8.44-2.591c-9.24-8.53-18.468-17.074-27.697-25.614
	c-14.541-13.455-29.195-26.789-43.574-40.413c-8.042-7.617-13.306-8.714-25.059-7.914c0,0.969,0,1.967,0,2.966
	c0,16.969,0.005,33.937-0.002,50.904c-0.006,15.244-10.198,25.435-25.435,25.438c-16.279,0.005-32.559,0.047-48.838-0.039
	c-3.187-0.017-5.688,0.834-8.13,3.028c-15.374,13.817-30.871,27.495-46.37,41.172c-1.521,1.345-3.334,2.357-5.012,3.519
	c-1.207,0-2.412,0-3.618,0c-5.02-2.05-6.387-5.914-6.266-11.101c0.26-11.17,0.08-22.35,0.08-33.524c0-0.923,0-1.849,0-3.054
	c-1.173,0-2.092,0-3.011,0c-12.121,0-24.243,0.099-36.363-0.031c-9.668-0.105-16.971-4.486-21.531-13.045
	c-1.231-2.312-1.808-4.97-2.684-7.469c0-44.622,0-89.243,0-133.865c0.151-0.396,0.349-0.781,0.448-1.189
	c2.957-12.254,11.982-19.411,24.519-19.419c11.88-0.008,23.761-0.002,35.64-0.002c0.917,0,1.836,0,2.982,0c0-1.308,0-2.32,0-3.332
	c0-27.978-0.05-55.957,0.02-83.934c0.046-18.311,12.078-33.867,29.664-38.612c1.804-0.486,3.63-0.889,5.446-1.333
	c93.206,0,186.412,0,279.617,0c0.385,0.154,0.758,0.379,1.159,0.451c16.843,3.102,27.678,12.917,32.657,29.248
	c0.544,1.786,0.892,3.632,1.331,5.449C429.962,139.43,429.962,190.253,429.962,241.077z M318.658,327.031c0-1.674,0-2.596,0-3.516
	c0-17.23,0-34.456,0-51.687c0-11.285-0.018-22.569,0.022-33.853c0.005-1.446,0.078-2.966,0.522-4.319
	c1.187-3.611,4.73-5.622,8.57-5.095c3.714,0.511,6.579,3.475,6.663,7.396c0.152,7.146,0.067,14.298,0.096,21.445
	c0.002,0.899,0.087,1.799,0.14,2.818c1.171,0,2.027,0,2.884,0c17.056-0.002,34.112,0.012,51.168-0.005
	c15.232-0.017,25.29-10.037,25.292-25.211c0.009-46.773-0.187-93.549,0.117-140.321c0.094-14.405-11.241-25.415-25.31-25.379
	c-89.156,0.224-178.312,0.23-267.468-0.009c-14.182-0.037-25.516,10.976-25.436,25.27c0.265,46.858,0.097,93.721,0.112,140.581
	c0.001,1.715,0.018,3.466,0.328,5.142c2.188,11.858,11.752,19.9,23.822,19.914c36.438,0.041,72.876,0.061,109.314-0.012
	c11.481-0.021,21.315,3.636,29.713,11.597c13.002,12.326,26.225,24.419,39.357,36.607
	C305.059,314.422,311.557,320.446,318.658,327.031z M207.715,276.158c-1.252,0-2.259,0-3.267,0c-27.823,0-55.645,0.021-83.467-0.03
	c-2.827-0.007-5.707-0.176-8.47-0.732c-19.232-3.865-32.36-19.895-32.433-39.512c-0.045-12.147-0.009-24.291-0.01-36.437
	c0-0.906,0-1.811,0-2.839c-13.042,0-25.697-0.007-38.352,0.004c-6.34,0.003-9.29,2.965-9.291,9.342
	c-0.005,41.52-0.005,83.038,0.001,124.557c0,6.283,3.026,9.263,9.395,9.266c15.073,0.01,30.147-0.003,45.222,0.007
	c5.792,0.003,8.958,3.146,8.971,8.917c0.019,8.614,0.001,17.229,0.011,25.842c0.001,0.79,0.084,1.579,0.148,2.717
	c0.954-0.795,1.554-1.269,2.126-1.778c10.882-9.67,21.813-19.282,32.616-29.037c5.061-4.572,10.866-6.708,17.634-6.683
	c16.539,0.055,33.076,0.021,49.616,0.016c6.613-0.002,9.549-2.979,9.55-9.664c0.002-16.968,0-33.937,0-50.906
	C207.715,278.278,207.715,277.354,207.715,276.158z"/>
<path d="M257.067,133.017c30.823,0,61.646-0.005,92.468,0.005c5.709,0.002,9.437,3.875,8.734,8.998
	c-0.455,3.307-2.765,5.896-6.033,6.594c-1.166,0.248-2.389,0.323-3.585,0.323c-61.129,0.015-122.259,0.015-183.388,0.008
	c-5.203,0-8.254-1.994-9.332-6.025c-1.247-4.664,2.052-9.423,6.86-9.857c0.94-0.084,1.893-0.044,2.84-0.044
	C196.109,133.015,226.588,133.017,257.067,133.017z"/>
<path d="M193.252,196.608c-9.555,0-19.11,0.009-28.666-0.003c-5.262-0.007-8.945-3.266-8.981-7.905
	c-0.037-4.631,3.669-8.019,8.886-8.022c19.283-0.019,38.565-0.019,57.848,0c5.291,0.005,8.803,3.276,8.764,8.056
	c-0.039,4.685-3.502,7.86-8.669,7.869C212.708,196.624,202.98,196.608,193.252,196.608z"/>
<path d="M264.96,196.607c-1.977,0-3.955,0.049-5.931-0.011c-4.404-0.128-7.771-3.369-7.927-7.565
	c-0.164-4.38,2.985-8.08,7.431-8.294c4.287-0.206,8.601-0.204,12.888,0.005c4.321,0.211,7.574,3.9,7.481,8.047
	c-0.096,4.294-3.541,7.679-8.012,7.809C268.916,196.654,266.938,196.607,264.96,196.607z"/>
</svg>
