<svg version="1.1" xmlns="http://www.w3.org/2000/svg" xmlns:xlink="http://www.w3.org/1999/xlink" x="0px" y="0px"
	 width="445px" height="450px" viewBox="0 0 445 450" style="fill:#7E3DFF;">
		<path d="M318.798,137.598l86.999,22.868l21.939-86.999l-16.708-4.388l-14.345,54.764
			C360.315,64.86,295.172,25.622,220.831,25.622c-114.084,0-206.567,92.568-206.567,206.736
			c0,114.169,92.483,206.736,206.567,206.736c76.113,0,142.605-41.179,178.468-102.524l-16.286-7.847
			c-32.909,55.27-93.158,92.314-162.098,92.314c-104.128,0-188.594-84.468-188.594-188.68S116.703,43.596,220.831,43.596
			c69.362,0,130.033,37.465,162.772,93.326l-60.417-16.033L318.798,137.598z"/>
		<polygon points="193.154,91.863 193.154,248.391 294.244,297.587 302.091,281.807 210.79,237.844 210.79,91.863"/>
</svg>
