<svg version="1.1" xmlns="http://www.w3.org/2000/svg" xmlns:xlink="http://www.w3.org/1999/xlink" x="0px" y="0px"
	 width="445px" height="450px" viewBox="0 0 445 450" style="fill:#FFFFFF;">
<path fill-rule="evenodd" clip-rule="evenodd" d="M85.392,31.427c90.852,0,181.703,0,272.554,0
	c2.64,0.625,4.572,2.283,6.442,4.16c19.475,19.549,38.979,39.071,58.502,58.572c2.047,2.044,4.048,4.063,4.772,6.984
	c0,0.915,0,1.83,0,2.745c-0.491,1.165-0.861,2.402-1.501,3.48c-1.213,2.041-2.581,3.989-3.885,5.976
	c-41.86,63.811-83.719,127.623-125.598,191.42c-0.554,0.844-0.688,1.478-0.229,2.454c4.222,8.984,6.69,18.457,7.353,28.35
	c1.253,18.721-3.085,36.072-13.628,51.633c-13.332,19.679-31.815,31.606-55.295,35.646c-2.782,0.479-5.604,0.726-8.407,1.079
	c-3.11,0-6.221,0-9.332,0c-0.398-0.077-0.795-0.172-1.197-0.23c-3.84-0.551-7.732-0.858-11.514-1.677
	c-51.421-11.132-79.316-67.178-57.221-114.923c0.443-0.957,0.233-1.549-0.277-2.326C104.33,239.86,61.739,174.943,19.18,110.006
	c-1.258-1.92-2.162-4.073-3.231-6.118c0-0.915,0-1.83,0-2.745c0.727-2.922,2.728-4.941,4.775-6.987
	c19.307-19.285,38.59-38.593,57.857-57.917C80.586,34.229,82.55,32.224,85.392,31.427z M318.962,111.444
	c-64.89,0-129.484,0-194.315,0c32.415,49.404,64.716,98.633,97.158,148.08C254.249,210.076,286.548,160.847,318.962,111.444z
	 M397.443,93.686c-0.316-0.356-0.457-0.53-0.614-0.687C382.413,78.567,368,64.13,353.55,49.731c-0.44-0.438-1.27-0.688-1.918-0.688
	c-86.538-0.03-173.075-0.027-259.613-0.049c-0.954,0-1.6,0.299-2.259,0.961C75.584,64.176,61.388,78.377,47.198,92.584
	c-0.306,0.307-0.584,0.64-1.006,1.102C163.335,93.686,280.262,93.686,397.443,93.686z M221.829,406.337
	c35.583-0.021,64.494-28.95,64.596-64.638c0.102-35.621-28.947-64.758-64.579-64.774c-35.653-0.017-64.65,28.993-64.663,64.689
	C157.171,377.285,186.208,406.357,221.829,406.337z M241.462,261.669c17.745,4.576,32.356,13.924,44.104,27.99
	c39.005-59.458,77.916-118.771,116.974-178.311c-0.808,0-1.298,0-1.788,0c-19.667,0-39.334,0.013-59-0.03
	c-1.248-0.002-1.949,0.393-2.626,1.425c-32.243,49.197-64.514,98.375-96.781,147.556
	C242.072,260.715,241.806,261.134,241.462,261.669z M202.109,261.68c-0.27-0.454-0.463-0.813-0.687-1.151
	c-32.392-49.371-64.789-98.739-97.166-148.12c-0.508-0.774-1.039-1.083-1.98-1.082c-19.895,0.028-39.79,0.021-59.685,0.024
	c-0.424,0-0.849,0.044-1.469,0.078c39.029,59.493,77.928,118.787,116.922,178.228C169.787,275.583,184.405,266.247,202.109,261.68z"
	/>
<path fill-rule="evenodd" clip-rule="evenodd" d="M216.012,327.015c-1.833,0-3.474,0.02-5.115-0.003
	c-4.982-0.067-8.83-3.879-8.861-8.759c-0.031-4.886,3.783-8.767,8.765-8.82c4.665-0.049,9.331-0.049,13.996,0
	c4.985,0.052,8.772,3.799,8.783,8.81c0.038,18.799,0.041,37.598-0.003,56.395c-0.012,4.985-3.975,8.808-8.839,8.754
	c-4.941-0.054-8.703-3.816-8.712-8.861c-0.03-15.231-0.012-30.462-0.013-45.692C216.012,328.296,216.012,327.753,216.012,327.015z"
	/>
</svg>
