<svg version="1.1" xmlns="http://www.w3.org/2000/svg" xmlns:xlink="http://www.w3.org/1999/xlink" x="0px" y="0px"
	 width="445px" height="450px" viewBox="0 0 445 450" style="fill:#FEC200;">
<path fill-rule="evenodd" clip-rule="evenodd" d="M225.868,15c0.23,0,0.46,0,0.69,0
	c0.259,0.366,0.467,0.785,0.785,1.089c19.758,18.969,41.924,34.358,67.143,45.23c31.971,13.783,65.595,19.118,100.156,19.717
	c1.808,0.031,3.617,0.004,5.82,0.004c0,1.617-0.011,2.742,0.001,3.868c0.125,11.39,0.225,22.778,0.403,34.167
	c0.045,2.857,0.346,5.71,0.529,8.566c0,17.276,0,34.552,0,51.829c-0.201,2.148-0.511,4.295-0.584,6.449
	c-0.945,27.88-3.803,55.519-10.492,82.665c-9.763,39.616-27.439,74.986-56.179,104.401c-23.336,23.885-51.012,41.308-81.459,54.556
	c-8.394,3.652-16.949,6.931-25.431,10.382c-0.691,0-1.382,0-2.073,0c-1.012-0.479-1.993-1.043-3.041-1.423
	c-18.622-6.748-36.643-14.795-53.764-24.798c-40.79-23.832-72.041-56.408-91.492-99.794c-15.656-34.92-21.98-71.93-24.47-109.786
	c-0.497-7.549-0.919-15.102-1.377-22.652c0-17.277,0-34.553,0-51.829c0.155-1.474,0.423-2.947,0.447-4.423
	c0.172-10.583,0.305-21.166,0.428-31.749c0.038-3.31,0.005-6.622,0.005-10.2c1.684-0.082,2.921-0.123,4.155-0.204
	c12.157-0.808,24.371-1.139,36.462-2.526c36.56-4.194,70.466-15.979,101.006-36.787C205.134,33.85,216.146,25.193,225.868,15z
	 M211.539,288.337c28.681-28.67,57.535-57.513,85.973-85.941c-8.168-8.26-16.64-16.825-25.394-25.677
	c-20.047,20.049-40.221,40.223-60.684,60.69c-10.561-10.561-21.115-21.113-31.556-31.556c-8.545,8.616-17.024,17.166-25.31,25.521
	C173.539,250.342,192.727,269.527,211.539,288.337z"/>
</svg>
