<svg height="496pt" viewBox="0 0 496 496" width="496pt" xmlns="http://www.w3.org/2000/svg" xmlns:xlink="http://www.w3.org/1999/xlink"><linearGradient id="a" gradientUnits="userSpaceOnUse" x1="248" x2="248" y1="496" y2="0"><stop offset="0" stop-color="#9f2fff"/><stop offset="1" stop-color="#0bb1d3"/></linearGradient><path d="m463.9375 197.449219c-1.378906-109.105469-90.511719-197.449219-199.9375-197.449219h-32c-109.425781 0-198.558594 88.34375-199.9375 197.449219-18.917969 9-32.0625 28.246093-32.0625 50.550781v101.769531l54.703125 18.230469h29.746094c5.550781 9.519531 15.757812 16 27.550781 16 17.648438 0 32-14.351562 32-32v-144c0-17.648438-14.351562-32-32-32-11.792969 0-22 6.480469-27.550781 16h-4.050781c4.210937-80.089844 70.488281-144 151.601562-144h32c81.113281 0 147.390625 63.910156 151.59375 144h-4.050781c-5.550781-9.519531-15.757813-16-27.550781-16-17.648438 0-32 14.351562-32 32v144c0 17.648438 14.351562 32 32 32 11.792968 0 22-6.480469 27.550781-16h4.457031v56c0 22.054688-17.945312 40-40 40h-72v-16h-88c-13.230469 0-24 10.769531-24 24s10.769531 24 24 24h88v-16h72c30.871094 0 56-25.128906 56-56v-56h9.296875l54.703125-18.230469v-101.769531c0-22.304688-13.144531-41.550781-32.0625-50.550781zm-367.9375 10.550781c0-8.824219 7.175781-16 16-16s16 7.175781 16 16v144c0 8.824219-7.175781 16-16 16s-16-7.175781-16-16zm304 144c0 8.824219-7.175781 16-16 16s-16-7.175781-16-16v-144c0-8.824219 7.175781-16 16-16s16 7.175781 16 16zm-112 128h-72c-4.414062 0-8-3.585938-8-8s3.585938-8 8-8h72zm-208-128h-16v-64h-16v60.902344l-32-10.664063v-90.238281c0-22.054688 17.945312-40 40-40h24zm184-320h-32c-89.9375 0-163.375 71.089844-167.59375 160h-8.40625c-2.65625 0-5.246094.246094-7.816406.609375 3.894531-98.042969 84.832031-176.609375 183.816406-176.609375h32c98.984375 0 179.921875 78.566406 183.816406 176.609375-2.558594-.363281-5.160156-.609375-7.816406-.609375h-8.40625c-4.21875-88.910156-77.65625-160-167.59375-160zm216 306.230469-32 10.664062v-60.894531h-16v64h-16v-144h24c22.054688 0 40 17.945312 40 40zm-48-82.230469h16v16h-16zm0-32h16v16h-16zm-384 32h16v16h-16zm0-32h16v16h-16zm0 0" fill="url(#a)"/></svg>