<?xml version="1.0" encoding="UTF-8"?>
<svg width="74px" height="87px" viewBox="0 0 74 87" version="1.1" xmlns="http://www.w3.org/2000/svg" xmlns:xlink="http://www.w3.org/1999/xlink">
    <!-- Generator: Sketch 44.1 (41455) - http://www.bohemiancoding.com/sketch -->
    <title>big_icon_timer</title>
    <desc>Created with Sketch.</desc>
    <defs></defs>
    <g id="prod" stroke="none" stroke-width="1" fill="none" fill-rule="evenodd">
        <g id="dving_main_updated" transform="translate(-1173.000000, -283.000000)">
            <g id="Group-6">
                <g id="Group-9" transform="translate(130.000000, 204.000000)">
                    <g id="Group-10-Copy-2" transform="translate(980.000000, 18.000000)">
                        <rect id="Rectangle-6" x="0" y="0" width="200" height="260" rx="20"></rect>
                        <g id="Group-22" fill-rule="nonzero" fill="#000000" opacity="0.100000001">
                            <path d="M20,0 L180,0 C191.045695,-2.02906125e-15 200,8.954305 200,20 L200,260 C200,271.045695 191.045695,280 180,280 L20,280 C8.954305,280 1.3527075e-15,271.045695 0,260 L3.55271368e-15,20 C-1.3527075e-15,8.954305 8.954305,2.02906125e-15 20,0 Z M20,3 C10.6111593,3 3,10.6111593 3,20 L3,260 C3,269.388841 10.6111593,277 20,277 L180,277 C189.388841,277 197,269.388841 197,260 L197,20 C197,10.6111593 189.388841,3 180,3 L20,3 Z" id="Combined-Shape"></path>
                        </g>
                        <path d="M99,70 L99,74 L101,74 L101,70 L99,70 Z M116.202609,77.7269443 C115.681031,77.0525519 115.632418,76.0915005 116.147153,75.3563829 L118.634508,71.8040714 C119.191742,71.008259 120.240274,70.7279905 121.120257,71.1396402 C123.548309,72.2754643 125.413358,73.2992276 126.715404,74.2109301 C128.01745,75.1226326 129.617358,76.5250577 131.515126,78.4182053 C132.202922,79.1043271 132.298175,80.1854819 131.740941,80.9812944 L129.253586,84.5336059 C128.620031,85.4384163 127.372939,85.6583122 126.468129,85.0247571 L126.075322,84.7497112 C132.822482,91.452179 137,100.738234 137,111 C137,131.434536 120.434536,148 100,148 C79.5654643,148 63,131.434536 63,111 C63,100.973627 66.988061,91.8787151 73.4644374,85.2150107 C72.6074761,85.5962558 71.5731738,85.3307107 71.0150351,84.5336059 L68.5276797,80.9812944 C67.9704459,80.1854819 68.0656986,79.1043271 68.753495,78.4182053 C70.6512631,76.5250577 72.2511702,75.1226326 73.5532164,74.2109301 C74.8552625,73.2992276 76.7203114,72.2754643 79.1483632,71.1396402 C80.028347,70.7279905 81.0768786,71.008259 81.6341124,71.8040714 L84.1214678,75.3563829 C84.5890471,76.0241555 84.5917683,76.8783619 84.1973808,77.5347752 C87.8439416,75.8098001 91.8176315,74.6632933 96,74.213705 L96,70 L94,70 C92.8954305,70 92,69.1045695 92,68 L92,63.6634283 C92,62.6919207 92.6981514,61.8609253 93.6551045,61.693391 C96.29553,61.2311303 98.4104952,61 100,61 C101.589505,61 103.70447,61.2311303 106.344895,61.693391 C107.301849,61.8609253 108,62.6919207 108,63.6634283 L108,68 C108,69.1045695 107.104569,70 106,70 L104,70 L104,74.213705 C108.335797,74.6797862 112.447323,75.894856 116.202609,77.7269443 Z M77,111 C77,98.2974508 87.2974508,88 100,88 C103.076724,88 106.012347,88.6041225 108.69472,89.7002173 C109.201806,89.9074271 109.84937,90.2191326 110.637401,90.6353528 C110.781821,90.7116276 110.906007,90.8211899 110.999686,90.9549776 C111.32559,91.4204172 111.212474,92.0619282 110.747035,92.3878325 L110.354725,92.662531 C109.767751,93.0735344 109.00575,93.1391098 108.357187,92.8344328 L108.357187,92.8344328 C108.007965,92.6703782 107.71637,92.5411269 107.482402,92.4466789 C105.171099,91.5136566 102.645535,91 100,91 C88.954305,91 80,99.954305 80,111 C80,111.828427 79.3284271,112.5 78.5,112.5 C77.6715729,112.5 77,111.828427 77,111 Z M99.6543581,105.009789 L115.552952,94.4107268 C116.012481,94.1043743 116.63335,94.2285482 116.939702,94.6880768 C117.163635,95.0239763 117.163635,95.4615778 116.939702,95.7974772 L105.814892,112.484693 C105.154166,115.080297 102.801269,117 100,117 C96.6862915,117 94,114.313708 94,111 C94,107.802304 96.5014907,105.188862 99.6543581,105.009789 Z M103.445948,106.087614 C104.160011,106.589441 104.759699,107.243012 105.198156,108.001469 L108.89655,102.45388 L103.445948,106.087614 Z M95,67 L105,67 L105,64.5085432 C102.905985,64.1677187 101.231141,64 100,64 C98.7688592,64 97.0940154,64.1677187 95,64.5085432 L95,67 Z M100,145 C118.777681,145 134,129.777681 134,111 C134,92.2223185 118.777681,77 100,77 C81.2223185,77 66,92.2223185 66,111 C66,129.777681 81.2223185,145 100,145 Z M100,141 C83.4314575,141 70,127.568542 70,111 C70,94.4314575 83.4314575,81 100,81 C116.568542,81 130,94.4314575 130,111 C130,127.568542 116.568542,141 100,141 Z M100,138 C114.911688,138 127,125.911688 127,111 C127,96.0883118 114.911688,84 100,84 C85.0883118,84 73,96.0883118 73,111 C73,125.911688 85.0883118,138 100,138 Z M100,114 C101.656854,114 103,112.656854 103,111 C103,109.343146 101.656854,108 100,108 C98.3431458,108 97,109.343146 97,111 C97,112.656854 98.3431458,114 100,114 Z M72.8989148,81.9937246 L81.0904352,76.2579602 L79.6613943,74.2170783 C77.7505884,75.1389691 76.2824372,75.9622329 75.2739457,76.6683863 C74.2654542,77.3745396 72.9897019,78.4725777 71.4698738,79.9528426 L72.8989148,81.9937246 Z M127.369706,81.9937246 L128.798747,79.9528426 C127.278919,78.4725777 126.003166,77.3745396 124.994675,76.6683863 C123.986183,75.9622329 122.518032,75.1389691 120.607226,74.2170783 L119.178185,76.2579602 L127.369706,81.9937246 Z" id="big_icon_timer" fill="#FFFFFF" fill-rule="nonzero"></path>
                    </g>
                </g>
            </g>
        </g>
    </g>
</svg>