<?xml version="1.0" encoding="UTF-8"?>
<svg width="101px" height="98px" viewBox="0 0 101 98" version="1.1" xmlns="http://www.w3.org/2000/svg" xmlns:xlink="http://www.w3.org/1999/xlink">
    <!-- Generator: Sketch 44.1 (41455) - http://www.bohemiancoding.com/sketch -->
    <title>big_icon_vault</title>
    <desc>Created with Sketch.</desc>
    <defs></defs>
    <g id="prod" stroke="none" stroke-width="1" fill="none" fill-rule="evenodd">
        <g id="dving_main_updated" transform="translate(-695.000000, -269.000000)" fill="#FFFFFF">
            <g id="Group-6">
                <g id="Group-9" transform="translate(130.000000, 204.000000)">
                    <g id="Group-10-Copy-2" transform="translate(520.000000, 18.000000)">
                        <g id="Page-1" transform="translate(45.000000, 47.000000)">
                            <path d="M80.1165646,84.6151273 C81.6204566,86.7175915 84.0810693,88.1037587 86.6295609,88.4353777 C85.3793575,89.7187431 84.5851301,92.0301272 85.8220688,93.5622068 C86.4753581,94.2785037 87.959353,94.9981169 88.5861128,93.8623219 C89.1183612,92.9570022 88.1367691,92.0384177 87.2546627,92.1014253 C86.8069771,91.6802692 87.2447141,90.8528799 87.4370531,90.3620838 C87.6907416,89.7933573 88.3606119,88.9261737 88.9757651,89.6026764 C90.303899,90.453279 90.9074455,92.3319004 89.9308277,93.6799315 C89.4632449,94.3464856 89.3372297,95.4358539 88.5977195,95.8205319 C85.9066316,96.1919451 83.1110838,95.8321386 80.4398931,95.3761625 C78.9476078,92.3783271 77.7852833,88.6442976 79.4914629,85.4474909 C79.6489819,85.2319385 79.8976961,84.557094 80.1165646,84.6151273 L80.1165646,84.6151273 Z M81.0368072,68.9245763 C82.1294917,69.1732905 83.2354409,69.4651152 84.3248092,69.6624284 C81.0235425,72.7978857 79.7169638,77.4322606 78.9260525,81.7980242 C78.6922612,82.3999126 79.4848305,83.0150658 78.7138164,83.4130086 C78.042288,84.5438292 78.0787661,83.8590361 78.1898585,82.8691535 C78.5430326,78.1303186 79.4516686,73.4080646 80.9306891,68.9079953 L81.0368072,68.9245763 Z M6.05444452,53.1958891 C8.89641899,53.2240767 11.9937401,53.3832538 14.4162166,55.0214514 C15.4790553,55.7792008 14.2653299,57.1288899 13.374933,57.3444422 C10.4417633,58.1569087 7.19852993,57.7025907 4.4676478,56.4772587 C3.29703288,56.1522721 2.8128692,54.2421469 4.12110599,53.736428 C4.71304583,53.4097833 5.36301899,53.1793081 6.05444452,53.1958891 L6.05444452,53.1958891 Z M21.8544298,47.7905 C23.4014322,52.2822788 20.9059996,57.147129 17.6528176,60.2029977 C17.2266872,60.9027137 16.4291436,60.6059147 15.8073581,60.4566862 C19.2462467,58.5067667 20.4798692,54.3582135 20.6821568,50.6308164 C20.9325291,49.6840443 21.6703813,48.856655 21.7665508,47.8269781 L21.8030289,47.6412715 L21.8544298,47.7905 Z M6.62482913,46.8636251 C9.57789595,46.9100517 12.464639,48.175178 14.7478355,50.0189794 C15.4856877,50.6507136 15.9963809,52.0982303 14.8589279,52.6122397 C14.109469,53.3285367 13.2638407,52.3303636 12.4182123,52.2922274 C9.71220163,51.60246 6.76908337,51.201201 4.03820125,51.8345932 C3.07484818,51.2890801 1.0934249,49.8962804 2.4000036,48.7505369 C3.46615855,47.545102 5.00818671,46.8851803 6.62482913,46.8636251 L6.62482913,46.8636251 Z M23.3765608,46.0163386 C29.6375267,47.6479039 36.2267955,47.440642 42.6419642,46.9962726 C44.7228732,46.8337793 46.8004659,46.548587 48.8548454,46.2948985 C48.130258,49.1866159 49.022313,52.4563788 51.3071676,54.4096145 C50.9622839,59.5944769 49.8513604,64.7113574 49.5611938,69.916117 C49.2096777,73.5009179 49.7021318,77.1802302 49.0256292,80.7119721 C48.6310026,81.0535397 47.8434076,80.4499932 47.3708506,80.4085408 C45.8603262,79.7834391 44.3481437,79.0290059 42.9967965,78.1568481 C42.1959367,71.1298423 41.1844989,63.9303948 42.3070291,56.8801757 C42.4993681,56.3645082 42.7198947,55.0811428 41.7764387,55.3878904 C40.9075971,55.9781721 40.9921599,57.4240308 39.7502469,57.4870384 C33.2770448,59.8664044 26.4108743,61.4283297 19.4800381,60.8513127 C22.6436829,57.4920127 24.9733061,52.6337949 23.7065217,47.9430448 C23.5224732,47.2267478 23.2323066,46.5502451 22.9222428,45.8870072 C23.0731295,45.9301177 23.2240161,45.9732282 23.3765608,46.0163386 L23.3765608,46.0163386 Z M75.8618934,45.8505291 C84.2783825,49.836589 91.7862358,55.9101902 96.9909953,63.6468605 C97.6824208,64.897064 98.7618405,66.2235398 98.8115834,67.6942699 C96.7887077,73.6982312 94.3761798,79.6856115 90.7084741,84.9036358 C90.0319715,85.5353699 89.5776535,86.8601876 88.4683881,86.6429772 C85.2583166,86.8784267 82.0416127,84.9881986 80.7466406,82.021867 C81.5309195,78.1087633 82.5871258,73.8109816 85.6098327,71.0071433 C86.4737,70.0189188 87.9643273,70.0802683 88.851408,69.1799229 C87.9477463,68.3011326 86.5300753,68.2480736 85.3859899,67.8318918 C81.5773461,66.8884359 77.2812225,66.3777427 74.3696081,63.5042644 C73.8953929,62.9338798 73.074636,63.5838529 73.5687483,64.1641861 C74.7559441,66.1621903 76.8799636,67.4173681 78.9028392,68.3061069 C77.6327386,72.121383 76.8550921,76.1107591 76.2681266,80.0537085 C71.8426716,81.3022539 67.2746204,82.4894498 62.6402455,82.6171231 C61.162883,82.7398221 60.7317784,81.0037968 60.7898117,79.8481048 C60.5361232,73.6451721 61.3187439,67.4538462 61.8758638,61.2890497 C62.0764933,60.103512 62.0466476,58.6957895 62.7297826,57.6876679 C67.5034375,56.5054463 72.0383268,53.5706185 74.5403918,49.2645463 C75.1455964,48.1851266 75.523642,46.9979307 75.7076906,45.7742568 L75.8618934,45.8505291 Z M70.2260292,43.1279375 C71.5077364,43.6833992 73.0431322,44.0962648 74.0346729,45.0662503 C73.6798406,47.7142277 71.8078516,49.9194938 69.9143073,51.6803904 C67.5664451,53.6900013 64.7393935,55.0413486 61.7631133,55.7642779 C59.9425253,56.8453557 60.02543,59.3291817 59.692153,61.171325 C59.0786579,67.6810052 58.1799705,74.2255053 58.5629904,80.7716636 C58.6575018,82.6386783 59.8231424,84.5885978 61.8111981,84.8456025 C64.7725554,85.18717 67.7239641,84.3730454 70.6339205,83.9021465 C72.4810381,83.5655533 74.4226671,82.9719553 76.1736152,82.5872774 C75.9895667,85.9979783 75.9514305,89.4667126 76.7920845,92.7911927 C66.4223597,96.4738212 54.5702981,96.0311099 44.5172694,91.6520816 C43.8888515,88.0639645 43.4245849,84.4227883 42.9802155,80.8131159 C45.087654,81.8013404 47.3227658,83.2405667 49.7518747,82.8708116 C51.5807532,82.0649775 51.2988771,79.6740048 51.3751495,78.0308329 C51.3652009,72.5259582 51.5343266,67.0161092 52.3202635,61.5593192 C52.5059701,58.9610847 53.2570871,56.3379787 52.9387329,53.736428 C51.7631437,52.4514045 50.4515907,51.0635792 50.3106526,49.1998806 C50.1979022,48.3774656 50.2692002,47.5351534 50.4234031,46.7243451 C51.5840694,47.387583 52.7994529,47.9596257 53.7412507,48.9395597 C57.2133012,51.6422542 62.6269807,52.6802216 66.3245321,49.8664347 C68.4982944,48.2348694 69.5097322,45.6117635 70.2260292,43.1295956 L70.2260292,43.1279375 Z M6.4424387,40.4169525 C9.28109698,40.5064896 12.3303333,41.3106656 14.4112423,43.3235927 C15.5287982,44.4709943 14.860586,46.3595642 13.811012,47.3312078 C10.6888195,45.585234 6.71768244,44.3118172 3.30698145,46.004732 C2.57907783,46.5237156 2.23087793,45.2254274 1.89925897,44.7429218 C1.10668966,43.171048 2.21429698,41.4300484 3.7679318,40.9176971 C4.61024396,40.566181 5.53380275,40.4484563 6.4424387,40.4169525 L6.4424387,40.4169525 Z M54.566982,39.9344469 C53.8042583,40.1019145 53.0249538,40.1118631 52.2622302,39.9924802 C51.524378,40.7552038 52.8243243,41.5825931 53.4941946,41.773274 C54.3713268,41.8512045 55.7889978,41.9672711 56.1869406,40.9939695 C56.211812,40.2362202 55.2003742,39.8498841 54.566982,39.9344469 L54.566982,39.9344469 Z M62.3235494,34.4461532 C62.9519673,34.4279141 62.4611713,35.0695968 62.1395009,35.2055606 C59.4285159,37.032781 56.0609254,38.0342703 52.7861881,37.5766361 C51.1363838,37.1936162 49.0836625,36.4242602 48.1252837,35.2055606 C50.6969887,35.9168832 53.4577165,36.4822936 56.123933,36.0213432 C58.1998676,35.5587348 60.217769,34.7711397 62.3235494,34.4461532 L62.3235494,34.4461532 Z M61.1860964,31.2692435 C60.4067918,31.5063511 61.1015335,32.4680461 60.9788345,32.8427755 C57.2365146,35.1243139 52.224094,35.9201994 48.2065303,33.8923495 C48.3458103,33.323623 47.8815437,32.5045242 47.3177915,33.0914897 C46.3958908,33.6817715 45.8022929,34.8391216 46.2980632,35.9085928 C46.6777669,36.5884116 47.0939487,37.7822399 48.0357466,37.6479342 C48.3275712,37.4721762 48.3209389,36.9830382 48.690694,37.43404 C51.9223208,39.5912213 56.2864263,40.1732126 59.8231424,38.4206064 C61.0368678,37.9264941 62.0250923,36.9250049 63.2006815,36.4391831 C63.6450509,36.8371258 63.1940492,38.2083702 64.1739832,37.8866999 C65.4623228,36.6265478 65.361179,34.127799 63.8489966,33.0417469 C63.0232654,32.4398585 62.2489351,31.3869683 61.1860964,31.2692435 L61.1860964,31.2692435 Z M72.3848686,28.2697501 C71.5889831,28.4919348 72.2588534,29.3441955 72.7015647,29.5481411 C73.232155,29.912922 73.4742369,31.2808502 74.3115747,30.6756456 C74.5238109,29.5995421 73.4559978,28.3145186 72.3848686,28.2697501 L72.3848686,28.2697501 Z M12.1180972,27.4622579 C13.7264491,27.3296103 14.2752785,29.3922802 13.7579529,30.6159542 C13.1245607,32.6603851 12.0086629,35.038093 13.2439435,37.0808658 C14.7528098,39.5481108 17.6146814,40.7618362 19.0439591,43.3235927 C20.5047406,45.3879207 20.599252,48.2730056 18.9560801,50.2361899 C18.6526488,50.8778725 17.327831,51.4233857 17.9015318,52.2275617 C18.2314927,52.7266482 19.1086248,51.6721 18.8018773,52.5177283 C18.3923279,55.5719389 16.644696,58.8549666 13.4213597,59.614374 C11.7052316,59.9708644 9.83158446,59.8664044 8.16354109,59.2545674 C10.698768,59.4618293 13.7977472,59.7602863 15.6962657,57.7324364 C16.662935,56.74587 16.8353769,54.9816572 15.7957514,54.0017231 C17.205132,53.2439738 17.5864938,51.3819334 16.7922664,50.0355604 C16.4556732,49.3176053 15.8703657,48.7389303 15.2767678,48.2282371 C16.6761998,46.6944994 17.2615072,44.1526401 15.8438362,42.4431443 C14.3333118,40.4915668 11.7582906,39.813406 9.58452833,39.0274691 C7.35604893,36.034608 6.78566432,31.2609531 9.77852542,28.5930785 C10.4052853,28.0425911 11.2260422,27.5302398 12.1180972,27.4622579 L12.1180972,27.4622579 Z M72.5374133,25.8107955 C71.7000754,26.0727745 72.4329533,26.9382999 72.9552532,27.1090837 C74.001511,27.7507664 74.4442223,28.9595175 75.3080897,29.7421382 C76.2515456,29.9361353 75.9497724,28.6312147 75.5849915,28.2050844 C74.9665222,27.0775799 73.9020253,25.8854097 72.5374133,25.8107955 L72.5374133,25.8107955 Z M62.8657464,22.3238221 C61.9620847,22.3984364 60.8196574,22.5277678 60.2592214,23.3137047 C60.0834633,24.3350911 61.4364687,24.1427521 62.0466476,24.3616206 C63.4245243,24.6517872 64.2602041,25.9898697 65.5419114,26.4077096 C66.4953159,26.2419001 66.0094941,24.9502443 65.9066922,24.315194 C65.5767314,22.9605305 64.2485974,22.0900308 62.8657464,22.3238221 L62.8657464,22.3238221 Z M56.5052948,21.7169594 C55.4391398,22.3205059 55.2617237,23.8028427 54.4492572,24.6816329 C53.6467393,26.0959878 52.0533102,26.9548809 51.5376428,28.5350452 C51.4646866,29.8465982 52.5523968,30.9210436 53.4179223,31.7766205 C54.0479983,32.4116708 55.3131246,31.9606691 55.0909399,30.9923417 C54.865439,30.0389372 53.6815593,29.2380774 54.3249001,28.181871 C55.4474303,26.2933011 56.7059242,24.3317749 57.0176461,22.1231927 C56.9960908,21.8728203 56.7639576,21.657268 56.5052948,21.7136432 L56.5052948,21.7169594 Z M49.6855509,21.1913434 C48.2761703,21.5395433 48.0921218,23.4148485 48.2131627,24.6318901 C48.2214532,25.5007318 49.0886368,26.7923876 50.0287765,26.047903 C51.1612552,24.9784319 51.2839543,23.0251962 50.5875544,21.6854556 C50.3852669,21.3919729 50.0602803,21.1482329 49.6855509,21.1913434 L49.6855509,21.1913434 Z M50.5709735,16.4939608 C49.5943557,16.6879579 48.8415806,17.5518253 48.4137922,18.4024279 C48.9244854,19.3243287 49.8579927,18.1072871 50.6124259,18.1437652 C51.3552523,18.297968 51.9024236,18.1719528 51.6437608,17.3561701 C51.5658304,16.8405027 51.1098543,16.409398 50.5709735,16.4939608 L50.5709735,16.4939608 Z M63.7030843,16.2568533 C62.9585997,16.2419304 62.0682028,17.3528539 62.9536254,17.8138043 C64.205487,18.2001404 65.046141,19.2563468 65.9829646,20.047258 C66.8799939,20.1401113 66.2996607,18.9645221 66.0211008,18.5533146 C65.4871943,17.6894472 64.9416811,16.2037943 63.7030843,16.2568533 L63.7030843,16.2568533 Z M44.6996598,15.6864687 C45.139055,16.217059 45.7094396,16.6465056 46.3627289,16.8653741 C45.8437452,17.5617739 45.3827949,18.6577745 44.9367674,19.1751001 C44.3149819,18.1222099 44.054661,16.7327265 44.6349941,15.6035639 L44.6996598,15.6881268 L44.6996598,15.6864687 Z M63.0895892,11.6904602 C64.6448821,12.7632476 65.8171551,14.6352366 67.7803394,14.9552489 C69.9839473,14.8922413 72.3782362,14.083091 74.4591452,15.0679993 C74.5005975,16.3480485 73.4460493,17.493792 72.8375285,18.5931088 C71.8940725,19.4636086 72.1776067,20.0804199 73.213916,20.6060359 C74.3298138,21.4433738 75.5269582,22.5824849 76.1736152,23.6469818 C75.225185,22.6173049 73.9998529,21.5461757 72.567259,21.4267928 C71.7481602,22.0286813 73.0845846,22.6421763 73.5223216,23.0202219 C74.7343889,23.9520712 75.7574334,25.1458995 76.450517,26.5138277 C75.4871639,25.2089071 74.316549,23.8061589 72.6965904,23.3949514 C71.8277487,23.5508123 72.4031076,24.5025587 72.9320399,24.7230853 C74.3397623,25.9500754 75.7723562,27.4208055 76.4206713,29.1369336 C75.6529734,29.7968554 75.0875631,30.4004019 76.2200418,31.0404265 C77.3293073,31.9225329 77.849949,33.6535838 76.7804779,34.7810883 C75.90832,35.7958423 74.5752118,36.9349534 73.1492503,36.7044783 C72.2654858,36.6630259 72.2140848,37.9646303 71.6519907,38.4786397 C69.9474692,41.0287895 67.423849,42.8261642 65.0212696,44.6600171 C64.6166945,45.2967255 65.5037752,45.8737425 66.0293912,45.4393216 C66.5516911,45.3448102 67.8499793,44.2769972 67.7803394,44.8009551 C66.8169863,47.6611687 64.082788,49.9509976 60.9605955,49.7238386 C59.8579624,49.7404195 58.765278,49.4651758 57.7372592,49.0871302 C58.9791722,49.0523102 60.3504166,49.3093149 61.5210315,48.891475 C62.0168019,48.3277228 61.2723173,47.7606543 60.672087,47.9330962 C56.1090101,48.0674019 51.4083114,46.3827776 48.533175,42.7614985 C44.6631818,38.0193474 43.8440829,31.4068654 44.9948007,25.5106803 C45.6149282,22.3868297 46.7573555,19.208262 48.8382644,16.759256 C51.2905866,16.0545657 52.9437071,14.0515872 54.5188972,12.1679915 C55.4059779,11.179767 56.5251919,12.4598162 57.4139307,12.7864609 C59.2826035,13.6055597 61.3850677,12.8643913 62.9204635,11.6888021 C62.9768387,11.6738793 63.0398463,11.5727355 63.0895892,11.6904602 Z M64.2684946,2.14149232 C66.1869103,2.34046369 67.0292224,4.61205356 68.8647333,5.08295248 C69.750156,5.45934 71.0617089,4.84584493 71.7183145,5.60193615 C73.5836711,8.31292114 75.662922,10.8697033 78.2843699,12.8793142 C80.6637359,15.185724 80.5924378,18.9164373 80.0751122,21.9573832 C79.8031847,23.2291419 79.3820286,24.718111 78.8083278,25.7229165 C78.1848842,23.1926638 76.4306199,21.0769348 74.4226671,19.4934543 C75.6712125,18.0343309 77.3657853,16.1557095 76.5748741,14.083091 C75.6745287,12.2392896 73.2570264,12.2873744 71.5060783,12.4929781 C70.1978416,12.5709086 68.9144762,13.3087607 67.6277946,13.0749694 C65.9813065,11.9905754 65.3180686,9.52001414 63.2305272,9.1204133 C61.2424716,8.89491241 60.0818052,11.6572983 58.0207934,10.8829681 C56.754009,10.3026349 55.0760171,9.53825319 53.8009422,10.5414005 C52.1511378,12.0237373 51.121461,14.2671395 48.9211692,15.0762898 C47.8052714,15.6947592 46.0758785,15.6201449 45.5834244,14.2489005 C44.7626674,12.2011534 45.087654,9.80852264 46.0858271,7.91829458 C46.3411737,9.36746942 47.7207086,10.5264777 49.214652,10.1633549 C52.1113436,9.48851034 53.6600041,6.47575211 56.3942024,5.48421142 C57.523365,5.15756675 58.3524124,6.73938918 59.5346339,6.14413315 C61.3966744,5.22554863 62.0599123,2.46979509 64.2668365,2.14149232 L64.2684946,2.14149232 Z M45.2600959,94.528876 C46.6761088,94.0662676 45.4391701,94.5902256 45.4391701,94.5902256 L45.5966891,94.6416265 C55.7160416,98.4535864 67.1784509,98.6177378 77.412212,95.087654 C77.412212,95.087654 77.7653862,97.7256828 81.4778604,97.6825723 C83.1541943,97.6825723 87.0590075,97.9412351 89.6837716,97.186802 C90.670338,96.3942327 91.003615,95.0130397 91.615452,93.9385943 C92.7247174,91.9671196 91.6370072,89.4866098 90.0900048,88.2513292 C93.6217467,85.0876843 95.5219233,80.5279236 97.509979,76.3113886 C98.7154139,73.4644398 99.9175326,70.546193 100.7814,67.6229719 C100.421593,65.298323 98.9508633,63.2804216 97.6741304,61.3537154 C91.1860054,52.4364817 81.8260603,45.7129073 71.4530193,42.0385692 C72.4379276,41.1813342 73.3316407,40.2030583 74.0346729,39.07887 C76.765555,38.4703492 79.5793419,36.3115098 79.6639047,33.2987516 C79.7633904,32.1331109 79.1217077,31.0636398 78.584485,30.1433972 C80.2525284,27.9878739 80.7798025,25.2205137 81.5607652,22.6604154 C82.2953012,19.085563 82.310224,14.8126527 79.721938,11.9723363 C77.3226749,9.97433212 75.0958536,7.7209813 73.4145455,5.08295248 C72.829238,3.99855849 71.6486745,3.41490912 70.4266586,3.5807186 C68.4585001,3.83109091 67.5084118,1.64406388 65.9415122,0.886314562 C65.4009733,0.584541309 64.7675811,0.423706115 64.1441375,0.45686801 C61.7117124,0.674078428 60.5361232,3.13966538 58.9692236,4.64189927 C57.9892896,4.03337848 56.7838547,3.57574431 55.6331369,4.06322418 C52.95863,5.0133125 51.489558,7.96306313 48.7023007,8.66112104 C47.50184,8.60142963 47.4554134,6.97649673 47.4371743,6.06122841 C47.5416343,5.4576819 46.9911468,5.0448163 46.503667,5.48421142 C44.2801619,6.65482634 43.7346487,9.46861321 43.6567182,11.7849716 C43.5190963,12.7483247 44.2271028,13.8128216 43.4212688,14.5672547 C42.1528262,16.5519942 42.8293289,19.1784163 44.1939409,20.9509196 C41.3221208,28.0326425 41.8195492,36.7724602 46.4572403,42.9886575 C46.8817126,43.539145 47.3310563,44.0564706 47.7953228,44.5721381 C40.1382411,45.5719692 32.1943089,46.0743719 24.6018929,44.4361743 C23.4080646,44.064761 22.0351621,43.8392602 21.0121176,43.1627575 C19.7005647,40.7734429 17.6163395,39.00923 15.5918058,37.2433591 C14.1741347,36.0810346 14.3233632,34.0498685 15.0545831,32.5376861 C15.9565866,30.5612371 16.1671647,27.7142883 14.2404585,26.2899849 C12.6022609,25.0629947 10.2394758,25.7826079 8.8300952,27.0311532 C5.76427793,29.4785012 5.31161805,34.0167066 6.78400623,37.4754923 C6.97302903,37.9198617 7.19852993,38.3907607 7.43895367,38.7903615 C5.00155433,38.6875596 2.15626366,39.1402195 0.685533582,41.2891104 C-0.649232726,43.1494927 0.143336585,45.6847197 1.5394524,47.211825 C0.637448833,48.0491628 -0.0274471787,49.2993663 0.461690785,50.5429374 C0.862949725,51.5278457 1.69531331,52.2358522 2.51109595,52.8476892 C0.972383981,54.3217354 1.85946469,56.7027596 3.08977103,58.0557649 C5.64986939,60.7004261 9.58618643,61.7964268 13.1975169,61.4117488 C20.8280691,63.8922586 29.1649697,62.7813351 36.7010106,60.45337 C37.8683093,60.1068282 39.0123947,59.6856721 40.1796934,59.3358141 C39.3025613,66.0295428 39.8945011,72.8277314 40.5113124,79.5214601 C40.924178,84.6051787 41.9322996,89.630864 42.3435071,94.7062922 C42.3435071,94.7062922 43.8440829,94.9898264 45.2600959,94.528876 L45.2600959,94.528876 Z" id="big_icon_vault"></path>
                        </g>
                    </g>
                </g>
            </g>
        </g>
    </g>
</svg>