<?xml version="1.0" encoding="UTF-8"?>
<svg width="79px" height="87px" viewBox="0 0 79 87" version="1.1" xmlns="http://www.w3.org/2000/svg" xmlns:xlink="http://www.w3.org/1999/xlink">
    <!-- Generator: Sketch 44.1 (41455) - http://www.bohemiancoding.com/sketch -->
    <title>big_icon_shield</title>
    <desc>Created with Sketch.</desc>
    <defs></defs>
    <g id="prod" stroke="none" stroke-width="1" fill="none" fill-rule="evenodd">
        <g id="dving_main_updated" transform="translate(-941.000000, -283.000000)" fill-rule="nonzero" fill="#FFFFFF">
            <g id="Group-6">
                <g id="Group-9" transform="translate(130.000000, 204.000000)">
                    <g id="Group-10-Copy-2" transform="translate(750.000000, 18.000000)">
                        <g id="Group-37" transform="translate(61.000000, 61.000000)">
                            <path d="M-9.09494702e-13,8 C20.2915466,8 32.6710249,5.85503601 37.1384348,1.56510804 C38.2652307,0.483077766 40.033802,0.446871894 41.2039375,1.48187985 C46.116675,5.82729328 58.7153625,8 79,8 L79,43.647534 C79,63.017928 65.6666667,77.46875 39,87 C13,77.5807292 -1.28776041e-13,63.1299072 3.989864e-17,43.647534 L-9.09494702e-13,8 Z M3,24.250299 L3,43.647534 C3,61.4523583 14.7731267,74.7827373 39.0072243,83.8067333 C63.9065317,74.6696657 76,61.3267906 76,43.647534 L76,22.8188459 C76,17.1499422 76,16.3663411 76,10.9840424 C56.7253474,10.7747392 44.6093664,8.49921785 39.2163364,3.72897615 C34.2210312,8.52582704 22.3197306,10.7778867 3,10.9843124 C3,16.6875761 3,17.5715804 3,24.250299 Z M39,59 C27.954305,59 19,50.045695 19,39 C19,27.954305 27.954305,19 39,19 C50.045695,19 59,27.954305 59,39 C59,50.045695 50.045695,59 39,59 Z M39,56 C48.3888407,56 56,48.3888407 56,39 C56,29.6111593 48.3888407,22 39,22 C29.6111593,22 22,29.6111593 22,39 C22,48.3888407 29.6111593,56 39,56 Z M33.058707,38.4764492 L36.9433594,42.3611015 L46.0474021,33.2570588 C46.6331885,32.6712724 47.582936,32.6712724 48.1687224,33.2570588 C48.7545088,33.8428453 48.7545088,34.7925928 48.1687224,35.3783792 L38.0040195,45.543082 C37.4182331,46.1288685 36.4684856,46.1288685 35.8826992,45.543082 L30.9373867,40.5977695 C30.3516003,40.0119831 30.3516003,39.0622356 30.9373867,38.4764492 C31.5231731,37.8906628 32.4729206,37.8906628 33.058707,38.4764492 Z" id="Combined-Shape"></path>
                        </g>
                    </g>
                </g>
            </g>
        </g>
    </g>
</svg>