<?xml version="1.0" encoding="UTF-8"?>
<svg width="18px" height="18px" viewBox="0 0 18 18" version="1.1" xmlns="http://www.w3.org/2000/svg" xmlns:xlink="http://www.w3.org/1999/xlink">
    <!-- Generator: Sketch 44.1 (41455) - http://www.bohemiancoding.com/sketch -->
    <title>icon_cart</title>
    <desc>Created with Sketch.</desc>
    <defs></defs>
    <g id="prod" stroke="none" stroke-width="1" fill="none" fill-rule="evenodd">
        <g id="dving_main_black_diamond" transform="translate(-1277.000000, -95.000000)" fill-rule="nonzero" fill="#FFFFFF">
            <g id="Group-6">
                <g id="Group-4" transform="translate(1262.000000, 80.000000)">
                    <g id="Group-20" transform="translate(15.000000, 15.000000)">
                        <path d="M6,5 L6,10 L12.7002538,10 L14.922476,5 L6,5 Z M4,3 L15.691857,3 C16.5202842,3 17.191857,3.67157288 17.191857,4.5 C17.191857,4.70987751 17.1478137,4.9174192 17.0625744,5.1092077 L14.2639385,11.4061385 C14.1034371,11.7672665 13.7453156,12 13.3501269,12 L5,12 C4.44771525,12 4,11.5522847 4,11 L4,3 Z M6,18 C4.8954305,18 4,17.1045695 4,16 C4,14.8954305 4.8954305,14 6,14 C7.1045695,14 8,14.8954305 8,16 C8,17.1045695 7.1045695,18 6,18 Z M13,18 C11.8954305,18 11,17.1045695 11,16 C11,14.8954305 11.8954305,14 13,14 C14.1045695,14 15,14.8954305 15,16 C15,17.1045695 14.1045695,18 13,18 Z M1,-4.56573866e-14 L1,-4.56301663e-14 C1.55228475,-4.57316205e-14 2,0.44771525 2,1 L2,2 C2,2.55228475 2.44771525,3 3,3 L4,3 L4,5 L2.5,5 L2.5,5 C1.11928813,5 -4.55721005e-14,3.88071187 -4.57411886e-14,2.5 L-4.57411886e-14,1 L-4.56301663e-14,1 C-4.56978002e-14,0.44771525 0.44771525,-4.55287121e-14 1,-4.56301663e-14 L1,-4.56573866e-14 Z" id="icon_cart"></path>
                    </g>
                </g>
            </g>
        </g>
    </g>
</svg>