<svg height="496pt" viewBox="0 0 496 496" width="496pt" xmlns="http://www.w3.org/2000/svg" xmlns:xlink="http://www.w3.org/1999/xlink"><linearGradient id="a" gradientUnits="userSpaceOnUse" x1="248" x2="248" y1="496" y2="0"><stop offset="0" stop-color="#9f2fff"/><stop offset="1" stop-color="#0bb1d3"/></linearGradient><path d="m96 400h16v16h-16zm-32 16h16v-16h-16zm-32 0h16v-16h-16zm464-264v256c0 22.054688-17.945312 40-40 40h-104v32h32v16h-272v-16h32v-32h-104c-22.054688 0-40-17.945312-40-40v-256c0-22.054688 17.945312-40 40-40h32v8c0 25.207031 9.023438 48.335938 24 66.359375v-18.359375c0-17.6875 11.871094-33.433594 28.878906-38.289062l27.121094-7.742188v-2.128906c-9.96875-7.511719-16-19.328125-16-31.832032v-16c0-11.175781 4.726562-21.929687 12.976562-29.488281 8.230469-7.550781 19.359376-11.351562 30.582032-10.351562 20.433594 1.761719 36.441406 19.992187 36.441406 41.496093v14.335938c0 12.503906-6.03125 24.328125-16 31.832031v2.128907l27.121094 7.75c17.007812 4.855468 28.878906 20.601562 28.878906 38.289062v18.351562c3.65625-4.390624 7.015625-9.070312 9.9375-14.09375l13.832031 8.054688c-21.449219 36.816406-61.210937 59.6875-103.769531 59.6875-63.480469 0-115.601562-49.550781-119.734375-112h-16.265625c-13.230469 0-24 10.769531-24 24v216h98.425781l24 16h341.574219v-232c0-13.230469-10.769531-24-24-24h-160.398438c-.355468 5.382812-.9375 10.742188-2 16h170.398438v112h-160v-80h16v64h128v-80h-175.375l3.070312-10.289062c2.855469-9.582032 4.304688-19.574219 4.304688-29.710938 0-57.34375-46.65625-104-104-104-48.535156 0-91.273438 34.359375-101.609375 81.703125l-15.621094-3.414063c11.917969-54.632812 61.222657-94.289062 117.230469-94.289062 63.472656 0 115.449219 49.558594 119.59375 112h160.40625c22.054688 0 40 17.945312 40 40zm-384 24h128v-8c0-10.574219-7.105469-20-17.273438-22.902344l-38.726562-11.066406v-23.070312l3.976562-2.3125c7.527344-4.382813 12.023438-12.105469 12.023438-20.648438v-14.335938c0-13.273437-9.585938-24.496093-21.832031-25.566406-6.832031-.585937-13.367188 1.613282-18.382813 6.207032-4.953125 4.535156-7.785156 10.992187-7.785156 17.695312v16c0 8.542969 4.496094 16.265625 12.023438 20.648438l3.976562 2.3125v23.070312l-38.726562 11.066406c-10.167969 2.902344-17.273438 12.328125-17.273438 22.902344zm-10.871094 16c18.933594 19.679688 45.472656 32 74.871094 32 28.511719 0 55.542969-11.878906 74.945312-32zm378.871094 216v-8h-346.425781l-24-16h-93.574219v24c0 13.230469 10.769531 24 24 24h120v48h176v-32h-160v-16h280c13.230469 0 24-10.769531 24-24zm-16-136v96h-160v-96zm-16 16h-128v64h128zm-112-112v16h16v-16zm96 0h-64v16h64zm-96 48h96v-16h-96zm-304 128h16v-16h-16zm32 0h128v-16h-128zm-16-48h-16v16h16zm144 0h-128v16h128zm-144-32h-16v16h16zm144 0h-128v16h128zm0 0" fill="url(#a)"/></svg>