<?xml version="1.0" encoding="UTF-8"?>
<svg width="18px" height="18px" viewBox="0 0 18 18" version="1.1" xmlns="http://www.w3.org/2000/svg" xmlns:xlink="http://www.w3.org/1999/xlink">
    <!-- Generator: Sketch 44.1 (41455) - http://www.bohemiancoding.com/sketch -->
    <title>icon_user</title>
    <desc>Created with Sketch.</desc>
    <defs></defs>
    <g id="prod" stroke="none" stroke-width="1" fill="none" fill-rule="evenodd">
        <g id="dving_main_black_diamond" transform="translate(-1209.000000, -95.000000)" fill-rule="nonzero" fill="#FFFFFF">
            <g id="Group-6">
                <g id="Group-3" transform="translate(1194.000000, 80.000000)">
                    <g id="ic_account_box" transform="translate(15.000000, 15.000000)">
                        <path d="M12.9271503,10.0950862 L16.6641006,13.1094004 C17.4986966,13.6657977 18,14.6024917 18,15.6055513 L18,16.5 L18,16.5 C18,17.3284271 17.3284271,18 16.5,18 L1.5,18 L1.5,18 C0.671572875,18 -2.12957009e-14,17.3284271 -8.50430837e-14,16.5 L-2.7000624e-13,15.6055513 C-2.69225614e-13,14.6024917 0.501303406,13.6657977 1.33589941,13.1094004 L5.06882027,10.0899737 C4.39936881,9.23945081 4,8.1663642 4,7 L4,4 C4,1.790861 5.790861,4.05812251e-16 8,0 L10,0 C12.209139,-4.05812251e-16 14,1.790861 14,4 L14,7 C14,8.16870244 13.5990283,9.24375293 12.9271503,10.0950862 Z M11.3663776,11.4056759 C10.6619161,11.7848517 9.85608336,12 9,12 C8.14119516,12 7.33296089,11.7834816 6.62690709,11.4020548 L2.59367631,14.6643915 L2.4452998,14.773501 C2.16710114,14.9589668 2,15.2711981 2,15.6055513 L2,16 L16,16 L16,15.6055513 C16,15.2711981 15.8328989,14.9589668 15.5547002,14.773501 L15.408433,14.6660953 L11.3663776,11.4056759 Z M8,2 C6.8954305,2 6,2.8954305 6,4 L6,7 C6,8.65685425 7.34314575,10 9,10 C10.6568542,10 12,8.65685425 12,7 L12,4 C12,2.8954305 11.1045695,2 10,2 L8,2 Z" id="icon_user"></path>
                    </g>
                </g>
            </g>
        </g>
    </g>
</svg>