<svg xmlns="http://www.w3.org/2000/svg" width="32" height="32" viewBox="0 0 32 32">
    <path fill="#797FA2" fill-opacity=".4" fill-rule="evenodd" d="M3 0h26a3 3 0 0 1 3 3v26a3 3 0 0 1-3 3H3a3 3 0 0 1-3-3V3a3 3 0 0 1 3-3zm21.363 12.78s-.167-1.202-.679-1.732c-.649-.694-1.376-.698-1.71-.738-2.388-.177-5.97-.177-5.97-.177h-.008s-3.582 0-5.97.177c-.334.04-1.061.044-1.71.738-.512.53-.679 1.731-.679 1.731s-.17 1.412-.17 2.823v1.323c0 1.412.17 2.823.17 2.823s.167 1.202.678 1.73c.65.696 1.503.674 1.882.747 1.366.134 5.803.175 5.803.175s3.586-.005 5.974-.182c.334-.04 1.061-.044 1.71-.74.512-.528.679-1.73.679-1.73s.17-1.411.17-2.823v-1.323c0-1.411-.17-2.823-.17-2.823zm-10.125 5.749v-4.9l4.61 2.458-4.61 2.442z"/>
</svg>
