<svg xmlns="http://www.w3.org/2000/svg" width="32" height="32" viewBox="0 0 32 32">
    <path fill="#797FA2" fill-opacity=".4" fill-rule="evenodd" d="M3 0h26a3 3 0 0 1 3 3v25.974a3 3 0 0 1-3 3H3a3 3 0 0 1-3-3V3a3 3 0 0 1 3-3zm3 16c0 4.235 2.636 7.854 6.355 9.311-.087-.79-.165-2.004.035-2.87.181-.78 1.173-4.969 1.173-4.969s-.3-.599-.3-1.484c0-1.391.806-2.429 1.81-2.429.853 0 1.265.64 1.265 1.409 0 .858-.546 2.14-.828 3.33-.236.995.5 1.806 1.48 1.806 1.778 0 3.144-1.874 3.144-4.58 0-2.394-1.72-4.067-4.177-4.067-2.844 0-4.514 2.134-4.514 4.34 0 .859.33 1.78.743 2.281.082.1.093.186.07.288-.076.315-.245.995-.278 1.133-.044.183-.145.222-.336.135-1.248-.582-2.028-2.409-2.028-3.874 0-3.155 2.292-6.053 6.607-6.053 3.469 0 6.165 2.473 6.165 5.776 0 3.446-2.174 6.22-5.189 6.22-1.014 0-1.966-.527-2.293-1.149l-.622 2.377c-.226.869-.836 1.957-1.243 2.621.935.291 1.93.447 2.961.447 5.523 0 10-4.477 10-10S21.523 6 16 6 6 10.476 6 16z"/>
</svg>
